solid irregular box
facet normal 1.0 0.0 0.0
  outer loop
    vertex 184.54680213892448 100.06174660686305 -267.5184501952355
    vertex 184.54680213892448 112.31174660686338 -262.8174883009122
    vertex 184.54680213892448 100.06174660686307 -257.5184501952355
  endloop
endfacet
facet normal 1.0 0.0 0.0
  outer loop
    vertex 184.54680213892448 112.31174660686338 -262.8174883009122
    vertex 184.54680213892448 100.06174660686305 -267.5184501952355
    vertex 184.54680213892448 112.67351803920961 -262.96733893466916
  endloop
endfacet
facet normal 1.0 0.0 0.0
  outer loop
    vertex 184.54680213892448 112.67351803920961 -262.96733893466916
    vertex 184.54680213892448 100.06174660686305 -267.5184501952355
    vertex 184.54680213892448 113.0617466068634 -263.0184501952355
  endloop
endfacet
facet normal 1.0 0.0 0.0
  outer loop
    vertex 184.54680213892448 113.0617466068634 -263.0184501952355
    vertex 184.54680213892448 100.06174660686305 -267.5184501952355
    vertex 184.54680213892448 152.0617466068631 -267.5184501952355
  endloop
endfacet
facet normal 1.0 0.0 0.0
  outer loop
    vertex 184.54680213892448 100.06174660686307 -257.5184501952355
    vertex 184.54680213892448 112.31174660686338 -262.8174883009122
    vertex 184.54680213892448 112.00108643508356 -262.57911036701535
  endloop
endfacet
facet normal 1.0 0.0 0.0
  outer loop
    vertex 184.54680213892448 100.06174660686307 -257.5184501952355
    vertex 184.54680213892448 112.00108643508356 -262.57911036701535
    vertex 184.54680213892448 111.76270850118671 -262.2684501952355
  endloop
endfacet
facet normal 1.0 0.0 0.0
  outer loop
    vertex 184.54680213892448 100.06174660686307 -257.5184501952355
    vertex 184.54680213892448 111.76270850118671 -262.2684501952355
    vertex 184.54680213892448 111.61285786742977 -261.9066787628893
  endloop
endfacet
facet normal 1.0 0.0 0.0
  outer loop
    vertex 184.54680213892448 100.06174660686307 -257.5184501952355
    vertex 184.54680213892448 111.61285786742977 -261.9066787628893
    vertex 184.54680213892448 111.56174660686337 -261.5184501952355
  endloop
endfacet
facet normal 1.0 0.0 0.0
  outer loop
    vertex 184.54680213892448 113.0617466068634 -263.0184501952355
    vertex 184.54680213892448 152.0617466068631 -267.5184501952355
    vertex 184.54680213892448 113.44997517451716 -262.96733893466916
  endloop
endfacet
facet normal 1.0 0.0 0.0
  outer loop
    vertex 184.54680213892448 113.44997517451716 -262.96733893466916
    vertex 184.54680213892448 152.0617466068631 -267.5184501952355
    vertex 184.54680213892448 113.8117466068634 -262.8174883009122
  endloop
endfacet
facet normal 1.0 0.0 0.0
  outer loop
    vertex 184.54680213892448 113.8117466068634 -262.8174883009122
    vertex 184.54680213892448 152.0617466068631 -267.5184501952355
    vertex 184.54680213892448 114.12240677864321 -262.57911036701535
  endloop
endfacet
facet normal 1.0 0.0 0.0
  outer loop
    vertex 184.54680213892448 114.12240677864321 -262.57911036701535
    vertex 184.54680213892448 152.0617466068631 -267.5184501952355
    vertex 184.54680213892448 114.36078471254007 -262.2684501952355
  endloop
endfacet
facet normal 1.0 0.0 0.0
  outer loop
    vertex 184.54680213892448 114.36078471254007 -262.2684501952355
    vertex 184.54680213892448 152.0617466068631 -267.5184501952355
    vertex 184.54680213892448 114.51063534629701 -261.9066787628893
  endloop
endfacet
facet normal 1.0 0.0 0.0
  outer loop
    vertex 184.54680213892448 114.51063534629701 -261.9066787628893
    vertex 184.54680213892448 152.0617466068631 -267.5184501952355
    vertex 184.54680213892448 114.56174660686341 -261.5184501952355
  endloop
endfacet
facet normal 1.0 0.0 0.0
  outer loop
    vertex 184.54680213892448 114.56174660686341 -261.5184501952355
    vertex 184.54680213892448 152.0617466068631 -267.5184501952355
    vertex 184.54680213892442 138.6732961403554 -262.9665107968729
  endloop
endfacet
facet normal 1.0 0.0 0.0
  outer loop
    vertex 184.54680213892448 114.56174660686341 -261.5184501952355
    vertex 184.54680213892442 138.6732961403554 -262.9665107968729
    vertex 184.54680213892442 138.31169017064065 -262.81705962524495
  endloop
endfacet
facet normal 1.0 0.0 0.0
  outer loop
    vertex 184.54680213892448 114.56174660686341 -261.5184501952355
    vertex 184.54680213892442 138.31169017064065 -262.81705962524495
    vertex 184.54680213892442 138.00108643508304 -262.5791103670153
  endloop
endfacet
facet normal 1.0 0.0 0.0
  outer loop
    vertex 184.54680213892448 114.56174660686341 -261.5184501952355
    vertex 184.54680213892442 138.00108643508304 -262.5791103670153
    vertex 184.54680213892442 137.76265206496393 -262.26887887090277
  endloop
endfacet
facet normal 1.0 0.0 0.0
  outer loop
    vertex 184.54680213892448 114.56174660686341 -261.5184501952355
    vertex 184.54680213892442 137.76265206496393 -262.26887887090277
    vertex 184.54680213892442 137.61263596857552 -261.90750690068546
  endloop
endfacet
facet normal 1.0 0.0 0.0
  outer loop
    vertex 184.54680213892448 114.56174660686341 -261.5184501952355
    vertex 184.54680213892442 137.61263596857552 -261.90750690068546
    vertex 184.54680213892442 137.56126149497334 -261.5196213589383
  endloop
endfacet
facet normal 1.0 0.0 0.0
  outer loop
    vertex 184.54680213892442 138.6732961403554 -262.9665107968729
    vertex 184.54680213892448 152.0617466068631 -267.5184501952355
    vertex 184.54680213892442 139.06126149497342 -263.0172790315326
  endloop
endfacet
facet normal 1.0 0.0 0.0
  outer loop
    vertex 184.54680213892442 139.06126149497342 -263.0172790315326
    vertex 184.54680213892448 152.0617466068631 -267.5184501952355
    vertex 184.54680213892442 139.44914703672055 -262.9659045579305
  endloop
endfacet
facet normal 1.0 0.0 0.0
  outer loop
    vertex 184.54680213892442 139.44914703672055 -262.9659045579305
    vertex 184.54680213892448 152.0617466068631 -267.5184501952355
    vertex 184.54680213892442 139.81051900693782 -262.8158884615421
  endloop
endfacet
facet normal 1.0 0.0 0.0
  outer loop
    vertex 184.54680213892442 139.81051900693782 -262.8158884615421
    vertex 184.54680213892448 152.0617466068631 -267.5184501952355
    vertex 184.54680213892442 140.12075050305043 -262.57745409142296
  endloop
endfacet
facet normal 1.0 0.0 0.0
  outer loop
    vertex 184.54680213892442 140.12075050305043 -262.57745409142296
    vertex 184.54680213892448 152.0617466068631 -267.5184501952355
    vertex 184.54680213892442 140.35869976128004 -262.26685035586536
  endloop
endfacet
facet normal 1.0 0.0 0.0
  outer loop
    vertex 184.54680213892442 140.35869976128004 -262.26685035586536
    vertex 184.54680213892448 152.0617466068631 -267.5184501952355
    vertex 184.54680213892442 140.50815093290805 -261.9052443861506
  endloop
endfacet
facet normal 1.0 0.0 0.0
  outer loop
    vertex 184.54680213892442 140.50815093290805 -261.9052443861506
    vertex 184.54680213892448 152.0617466068631 -267.5184501952355
    vertex 184.54680213892442 140.55891916756775 -261.5172790315326
  endloop
endfacet
facet normal 1.0 0.0 0.0
  outer loop
    vertex 184.54680213892448 100.06174660686307 -257.5184501952355
    vertex 184.54680213892448 113.0617466068634 -260.0184501952355
    vertex 184.54680213892448 152.0617466068631 -257.5184501952355
  endloop
endfacet
facet normal 1.0 0.0 0.0
  outer loop
    vertex 184.54680213892448 113.0617466068634 -260.0184501952355
    vertex 184.54680213892448 100.06174660686307 -257.5184501952355
    vertex 184.54680213892448 112.67351803920961 -260.06956145580193
  endloop
endfacet
facet normal 1.0 0.0 0.0
  outer loop
    vertex 184.54680213892448 112.67351803920961 -260.06956145580193
    vertex 184.54680213892448 100.06174660686307 -257.5184501952355
    vertex 184.54680213892448 112.31174660686338 -260.21941208955883
  endloop
endfacet
facet normal 1.0 0.0 0.0
  outer loop
    vertex 184.54680213892448 112.31174660686338 -260.21941208955883
    vertex 184.54680213892448 100.06174660686307 -257.5184501952355
    vertex 184.54680213892448 112.00108643508356 -260.4577900234557
  endloop
endfacet
facet normal 1.0 0.0 0.0
  outer loop
    vertex 184.54680213892448 112.00108643508356 -260.4577900234557
    vertex 184.54680213892448 100.06174660686307 -257.5184501952355
    vertex 184.54680213892448 111.76270850118671 -260.7684501952355
  endloop
endfacet
facet normal 1.0 0.0 0.0
  outer loop
    vertex 184.54680213892448 111.76270850118671 -260.7684501952355
    vertex 184.54680213892448 100.06174660686307 -257.5184501952355
    vertex 184.54680213892448 111.61285786742977 -261.13022162758176
  endloop
endfacet
facet normal 1.0 0.0 0.0
  outer loop
    vertex 184.54680213892448 111.61285786742977 -261.13022162758176
    vertex 184.54680213892448 100.06174660686307 -257.5184501952355
    vertex 184.54680213892448 111.56174660686337 -261.5184501952355
  endloop
endfacet
facet normal 1.0 0.0 0.0
  outer loop
    vertex 184.54680213892448 152.0617466068631 -257.5184501952355
    vertex 184.54680213892448 113.0617466068634 -260.0184501952355
    vertex 184.54680213892448 113.44997517451716 -260.06956145580193
  endloop
endfacet
facet normal 1.0 0.0 0.0
  outer loop
    vertex 184.54680213892448 152.0617466068631 -257.5184501952355
    vertex 184.54680213892448 113.44997517451716 -260.06956145580193
    vertex 184.54680213892448 113.8117466068634 -260.21941208955883
  endloop
endfacet
facet normal 1.0 0.0 0.0
  outer loop
    vertex 184.54680213892448 152.0617466068631 -257.5184501952355
    vertex 184.54680213892448 113.8117466068634 -260.21941208955883
    vertex 184.54680213892448 114.12240677864321 -260.4577900234557
  endloop
endfacet
facet normal 1.0 0.0 0.0
  outer loop
    vertex 184.54680213892448 152.0617466068631 -257.5184501952355
    vertex 184.54680213892448 114.12240677864321 -260.4577900234557
    vertex 184.54680213892448 114.36078471254007 -260.7684501952355
  endloop
endfacet
facet normal 1.0 0.0 0.0
  outer loop
    vertex 184.54680213892448 152.0617466068631 -257.5184501952355
    vertex 184.54680213892448 114.36078471254007 -260.7684501952355
    vertex 184.54680213892448 114.51063534629701 -261.13022162758176
  endloop
endfacet
facet normal 1.0 0.0 0.0
  outer loop
    vertex 184.54680213892448 152.0617466068631 -257.5184501952355
    vertex 184.54680213892448 114.51063534629701 -261.13022162758176
    vertex 184.54680213892448 114.56174660686341 -261.5184501952355
  endloop
endfacet
facet normal 1.0 0.0 0.0
  outer loop
    vertex 184.54680213892448 152.0617466068631 -257.5184501952355
    vertex 184.54680213892448 114.56174660686341 -261.5184501952355
    vertex 184.54680213892442 138.6710336258205 -260.0709958325404
  endloop
endfacet
facet normal 1.0 0.0 0.0
  outer loop
    vertex 184.54680213892442 138.6710336258205 -260.0709958325404
    vertex 184.54680213892448 114.56174660686341 -261.5184501952355
    vertex 184.54680213892442 138.30966165560324 -260.2210119289288
  endloop
endfacet
facet normal 1.0 0.0 0.0
  outer loop
    vertex 184.54680213892442 138.30966165560324 -260.2210119289288
    vertex 184.54680213892448 114.56174660686341 -261.5184501952355
    vertex 184.54680213892442 137.99943015949066 -260.45944629904795
  endloop
endfacet
facet normal 1.0 0.0 0.0
  outer loop
    vertex 184.54680213892442 137.99943015949066 -260.45944629904795
    vertex 184.54680213892448 114.56174660686341 -261.5184501952355
    vertex 184.54680213892442 137.76148090126102 -260.77005003460556
  endloop
endfacet
facet normal 1.0 0.0 0.0
  outer loop
    vertex 184.54680213892442 137.76148090126102 -260.77005003460556
    vertex 184.54680213892448 114.56174660686341 -261.5184501952355
    vertex 184.54680213892442 137.61202972963304 -261.1316560043203
  endloop
endfacet
facet normal 1.0 0.0 0.0
  outer loop
    vertex 184.54680213892442 137.61202972963304 -261.1316560043203
    vertex 184.54680213892448 114.56174660686341 -261.5184501952355
    vertex 184.54680213892442 137.56126149497334 -261.5196213589383
  endloop
endfacet
facet normal 1.0 0.0 0.0
  outer loop
    vertex 184.54680213892448 152.0617466068631 -257.5184501952355
    vertex 184.54680213892442 138.6710336258205 -260.0709958325404
    vertex 184.54680213892442 139.05891916756764 -260.0196213589382
  endloop
endfacet
facet normal 1.0 0.0 0.0
  outer loop
    vertex 184.54680213892448 152.0617466068631 -257.5184501952355
    vertex 184.54680213892442 139.05891916756764 -260.0196213589382
    vertex 184.54680213892442 139.44688452218566 -260.070389593598
  endloop
endfacet
facet normal 1.0 0.0 0.0
  outer loop
    vertex 184.54680213892448 152.0617466068631 -257.5184501952355
    vertex 184.54680213892442 139.44688452218566 -260.070389593598
    vertex 184.54680213892442 139.80849049190041 -260.219840765226
  endloop
endfacet
facet normal 1.0 0.0 0.0
  outer loop
    vertex 184.54680213892448 152.0617466068631 -257.5184501952355
    vertex 184.54680213892442 139.80849049190041 -260.219840765226
    vertex 184.54680213892442 140.11909422745802 -260.45779002345563
  endloop
endfacet
facet normal 1.0 0.0 0.0
  outer loop
    vertex 184.54680213892448 152.0617466068631 -257.5184501952355
    vertex 184.54680213892442 140.11909422745802 -260.45779002345563
    vertex 184.54680213892442 140.35752859757713 -260.76802151956815
  endloop
endfacet
facet normal 1.0 0.0 0.0
  outer loop
    vertex 184.54680213892448 152.0617466068631 -257.5184501952355
    vertex 184.54680213892442 140.35752859757713 -260.76802151956815
    vertex 184.54680213892442 140.50754469396554 -261.12939348978546
  endloop
endfacet
facet normal 1.0 0.0 0.0
  outer loop
    vertex 184.54680213892448 152.0617466068631 -257.5184501952355
    vertex 184.54680213892442 140.50754469396554 -261.12939348978546
    vertex 184.54680213892442 140.55891916756775 -261.5172790315326
  endloop
endfacet
facet normal 1.0 0.0 0.0
  outer loop
    vertex 184.54680213892448 152.0617466068631 -257.5184501952355
    vertex 184.54680213892442 140.55891916756775 -261.5172790315326
    vertex 184.54680213892448 152.0617466068631 -267.5184501952355
  endloop
endfacet
facet normal 0.0 -1.0 0.0
  outer loop
    vertex 184.54680213892448 100.06174660686307 -257.5184501952355
    vertex 117.54680213892448 100.06174660686305 -267.5184501952355
    vertex 184.54680213892448 100.06174660686305 -267.5184501952355
  endloop
endfacet
facet normal 0.0 -1.0 0.0
  outer loop
    vertex 117.54680213892448 100.06174660686305 -267.5184501952355
    vertex 184.54680213892448 100.06174660686307 -257.5184501952355
    vertex 117.54680213892448 100.06174660686307 -257.5184501952355
  endloop
endfacet
facet normal 0.0 0.0 -1.0
  outer loop
    vertex 117.54680213892448 152.0617466068631 -267.5184501952355
    vertex 119.54680213892448 150.0617466068631 -267.5184501952355
    vertex 117.54680213892448 100.06174660686305 -267.5184501952355
  endloop
endfacet
facet normal 0.0 0.0 -1.0
  outer loop
    vertex 119.54680213892448 150.0617466068631 -267.5184501952355
    vertex 117.54680213892448 152.0617466068631 -267.5184501952355
    vertex 184.54680213892448 152.0617466068631 -267.5184501952355
  endloop
endfacet
facet normal 0.0 0.0 -1.0
  outer loop
    vertex 119.54680213892448 150.0617466068631 -267.5184501952355
    vertex 184.54680213892448 152.0617466068631 -267.5184501952355
    vertex 182.54680213892448 150.0617466068631 -267.5184501952355
  endloop
endfacet
facet normal 0.0 0.0 -1.0
  outer loop
    vertex 182.54680213892448 150.0617466068631 -267.5184501952355
    vertex 184.54680213892448 152.0617466068631 -267.5184501952355
    vertex 182.54680213892448 143.0617466068631 -267.5184501952355
  endloop
endfacet
facet normal 0.0 0.0 -1.0
  outer loop
    vertex 182.54680213892448 143.0617466068631 -267.5184501952355
    vertex 184.54680213892448 152.0617466068631 -267.5184501952355
    vertex 182.54680213892448 108.06174660686305 -267.5184501952355
  endloop
endfacet
facet normal 0.0 0.0 -1.0
  outer loop
    vertex 182.54680213892448 108.06174660686305 -267.5184501952355
    vertex 184.54680213892448 152.0617466068631 -267.5184501952355
    vertex 182.54680213892448 102.06174660686305 -267.5184501952355
  endloop
endfacet
facet normal 0.0 0.0 -1.0
  outer loop
    vertex 117.54680213892448 100.06174660686305 -267.5184501952355
    vertex 119.54680213892448 102.06174660686305 -267.5184501952355
    vertex 184.54680213892448 100.06174660686305 -267.5184501952355
  endloop
endfacet
facet normal 0.0 0.0 -1.0
  outer loop
    vertex 119.54680213892448 102.06174660686305 -267.5184501952355
    vertex 117.54680213892448 100.06174660686305 -267.5184501952355
    vertex 119.54680213892448 150.0617466068631 -267.5184501952355
  endloop
endfacet
facet normal 0.0 0.0 -1.0
  outer loop
    vertex 119.54680213892448 102.06174660686305 -267.5184501952355
    vertex 119.54680213892448 150.0617466068631 -267.5184501952355
    vertex 119.54680213892448 143.0617466068631 -267.5184501952355
  endloop
endfacet
facet normal 0.0 0.0 -1.0
  outer loop
    vertex 119.54680213892448 102.06174660686305 -267.5184501952355
    vertex 119.54680213892448 143.0617466068631 -267.5184501952355
    vertex 119.54680213892448 108.06174660686305 -267.5184501952355
  endloop
endfacet
facet normal 0.0 0.0 -1.0
  outer loop
    vertex 184.54680213892448 100.06174660686305 -267.5184501952355
    vertex 119.54680213892448 102.06174660686305 -267.5184501952355
    vertex 182.54680213892448 102.06174660686305 -267.5184501952355
  endloop
endfacet
facet normal 0.0 0.0 -1.0
  outer loop
    vertex 184.54680213892448 100.06174660686305 -267.5184501952355
    vertex 182.54680213892448 102.06174660686305 -267.5184501952355
    vertex 184.54680213892448 152.0617466068631 -267.5184501952355
  endloop
endfacet
facet normal 0.0 0.0 -1.0
  outer loop
    vertex 182.54680213892448 143.0617466068631 -267.5184501952355
    vertex 119.54680213892448 108.06174660686305 -267.5184501952355
    vertex 119.54680213892448 143.0617466068631 -267.5184501952355
  endloop
endfacet
facet normal 0.0 0.0 -1.0
  outer loop
    vertex 119.54680213892448 108.06174660686305 -267.5184501952355
    vertex 182.54680213892448 143.0617466068631 -267.5184501952355
    vertex 182.54680213892448 108.06174660686305 -267.5184501952355
  endloop
endfacet
facet normal -1.0 0.0 0.0
  outer loop
    vertex 117.54680213892448 100.06174660686307 -257.5184501952355
    vertex 117.54680213892448 152.0617466068631 -267.5184501952355
    vertex 117.54680213892448 100.06174660686305 -267.5184501952355
  endloop
endfacet
facet normal -1.0 0.0 0.0
  outer loop
    vertex 117.54680213892448 152.0617466068631 -267.5184501952355
    vertex 117.54680213892448 100.06174660686307 -257.5184501952355
    vertex 117.54680213892448 152.0617466068631 -257.5184501952355
  endloop
endfacet
facet normal 0.0 1.0 0.0
  outer loop
    vertex 117.54680213892448 152.0617466068631 -257.5184501952355
    vertex 184.54680213892448 152.0617466068631 -267.5184501952355
    vertex 117.54680213892448 152.0617466068631 -267.5184501952355
  endloop
endfacet
facet normal 0.0 1.0 0.0
  outer loop
    vertex 184.54680213892448 152.0617466068631 -267.5184501952355
    vertex 117.54680213892448 152.0617466068631 -257.5184501952355
    vertex 184.54680213892448 152.0617466068631 -257.5184501952355
  endloop
endfacet
facet normal 0.0 -5.3498246873547955e-17 1.0
  outer loop
    vertex 115.79680213892449 98.31174660686304 -269.5184501952355
    vertex 119.54680213892448 102.06174660686305 -269.5184501952355
    vertex 115.79680213892449 153.81174660686315 -269.5184501952355
  endloop
endfacet
facet normal 0.0 -5.3498246873547955e-17 1.0
  outer loop
    vertex 119.54680213892448 102.06174660686305 -269.5184501952355
    vertex 115.79680213892449 98.31174660686304 -269.5184501952355
    vertex 186.29680213892448 98.31174660686304 -269.5184501952355
  endloop
endfacet
facet normal 0.0 -5.3498246873547955e-17 1.0
  outer loop
    vertex 119.54680213892448 102.06174660686305 -269.5184501952355
    vertex 186.29680213892448 98.31174660686304 -269.5184501952355
    vertex 182.54680213892448 102.06174660686305 -269.5184501952355
  endloop
endfacet
facet normal 0.0 -5.3498246873547955e-17 1.0
  outer loop
    vertex 182.54680213892448 102.06174660686305 -269.5184501952355
    vertex 186.29680213892448 98.31174660686304 -269.5184501952355
    vertex 182.54680213892448 108.06174660686305 -269.5184501952355
  endloop
endfacet
facet normal 0.0 -5.3498246873547955e-17 1.0
  outer loop
    vertex 182.54680213892448 108.06174660686305 -269.5184501952355
    vertex 186.29680213892448 98.31174660686304 -269.5184501952355
    vertex 182.54680213892448 143.0617466068631 -269.5184501952355
  endloop
endfacet
facet normal 0.0 -5.3498246873547955e-17 1.0
  outer loop
    vertex 182.54680213892448 143.0617466068631 -269.5184501952355
    vertex 186.29680213892448 98.31174660686304 -269.5184501952355
    vertex 182.54680213892448 150.0617466068631 -269.5184501952355
  endloop
endfacet
facet normal 0.0 -5.3498246873547955e-17 1.0
  outer loop
    vertex 115.79680213892449 153.81174660686315 -269.5184501952355
    vertex 119.54680213892448 150.0617466068631 -269.5184501952355
    vertex 186.29680213892448 153.81174660686315 -269.5184501952355
  endloop
endfacet
facet normal 0.0 -5.3498246873547955e-17 1.0
  outer loop
    vertex 119.54680213892448 150.0617466068631 -269.5184501952355
    vertex 115.79680213892449 153.81174660686315 -269.5184501952355
    vertex 119.54680213892448 102.06174660686305 -269.5184501952355
  endloop
endfacet
facet normal 0.0 -5.3498246873547955e-17 1.0
  outer loop
    vertex 119.54680213892448 150.0617466068631 -269.5184501952355
    vertex 119.54680213892448 102.06174660686305 -269.5184501952355
    vertex 119.54680213892448 108.06174660686305 -269.5184501952355
  endloop
endfacet
facet normal 0.0 -5.3498246873547955e-17 1.0
  outer loop
    vertex 119.54680213892448 150.0617466068631 -269.5184501952355
    vertex 119.54680213892448 108.06174660686305 -269.5184501952355
    vertex 119.54680213892448 143.0617466068631 -269.5184501952355
  endloop
endfacet
facet normal 0.0 -5.3498246873547955e-17 1.0
  outer loop
    vertex 186.29680213892448 153.81174660686315 -269.5184501952355
    vertex 119.54680213892448 150.0617466068631 -269.5184501952355
    vertex 182.54680213892448 150.0617466068631 -269.5184501952355
  endloop
endfacet
facet normal 0.0 -5.3498246873547955e-17 1.0
  outer loop
    vertex 186.29680213892448 153.81174660686315 -269.5184501952355
    vertex 182.54680213892448 150.0617466068631 -269.5184501952355
    vertex 186.29680213892448 98.31174660686304 -269.5184501952355
  endloop
endfacet
facet normal 0.0 -5.3498246873547955e-17 1.0
  outer loop
    vertex 182.54680213892448 108.06174660686305 -269.5184501952355
    vertex 119.54680213892448 143.0617466068631 -269.5184501952355
    vertex 119.54680213892448 108.06174660686305 -269.5184501952355
  endloop
endfacet
facet normal 0.0 -5.3498246873547955e-17 1.0
  outer loop
    vertex 119.54680213892448 143.0617466068631 -269.5184501952355
    vertex 182.54680213892448 108.06174660686305 -269.5184501952355
    vertex 182.54680213892448 143.0617466068631 -269.5184501952355
  endloop
endfacet
facet normal 0.0 5.349824687354788e-17 -1.0
  outer loop
    vertex 115.79680213892449 153.81174660686307 -257.5184501952355
    vertex 117.54680213892448 152.0617466068631 -257.5184501952355
    vertex 115.79680213892449 98.31174660686308 -257.5184501952355
  endloop
endfacet
facet normal 0.0 5.349824687354788e-17 -1.0
  outer loop
    vertex 117.54680213892448 152.0617466068631 -257.5184501952355
    vertex 115.79680213892449 153.81174660686307 -257.5184501952355
    vertex 186.29680213892448 153.81174660686307 -257.5184501952355
  endloop
endfacet
facet normal 0.0 5.349824687354788e-17 -1.0
  outer loop
    vertex 117.54680213892448 152.0617466068631 -257.5184501952355
    vertex 186.29680213892448 153.81174660686307 -257.5184501952355
    vertex 184.54680213892448 152.0617466068631 -257.5184501952355
  endloop
endfacet
facet normal 0.0 5.349824687354788e-17 -1.0
  outer loop
    vertex 184.54680213892448 152.0617466068631 -257.5184501952355
    vertex 186.29680213892448 153.81174660686307 -257.5184501952355
    vertex 184.54680213892448 100.06174660686307 -257.5184501952355
  endloop
endfacet
facet normal 0.0 5.349824687354788e-17 -1.0
  outer loop
    vertex 115.79680213892449 98.31174660686308 -257.5184501952355
    vertex 117.54680213892448 100.06174660686307 -257.5184501952355
    vertex 186.29680213892448 98.31174660686308 -257.5184501952355
  endloop
endfacet
facet normal 0.0 5.349824687354788e-17 -1.0
  outer loop
    vertex 117.54680213892448 100.06174660686307 -257.5184501952355
    vertex 115.79680213892449 98.31174660686308 -257.5184501952355
    vertex 117.54680213892448 152.0617466068631 -257.5184501952355
  endloop
endfacet
facet normal 0.0 5.349824687354788e-17 -1.0
  outer loop
    vertex 186.29680213892448 98.31174660686308 -257.5184501952355
    vertex 117.54680213892448 100.06174660686307 -257.5184501952355
    vertex 184.54680213892448 100.06174660686307 -257.5184501952355
  endloop
endfacet
facet normal 0.0 5.349824687354788e-17 -1.0
  outer loop
    vertex 186.29680213892448 98.31174660686308 -257.5184501952355
    vertex 184.54680213892448 100.06174660686307 -257.5184501952355
    vertex 186.29680213892448 153.81174660686307 -257.5184501952355
  endloop
endfacet
facet normal 0.0 -1.0 -2.5673907444456745e-16
  outer loop
    vertex 186.29680213892448 153.81174660686307 -257.5184501952355
    vertex 115.79680213892449 153.81174660686315 -269.5184501952355
    vertex 186.29680213892448 153.81174660686315 -269.5184501952355
  endloop
endfacet
facet normal 0.0 -1.0 -2.5673907444456745e-16
  outer loop
    vertex 115.79680213892449 153.81174660686315 -269.5184501952355
    vertex 186.29680213892448 153.81174660686307 -257.5184501952355
    vertex 115.79680213892449 153.81174660686307 -257.5184501952355
  endloop
endfacet
facet normal -1.0 0.0 0.0
  outer loop
    vertex 186.29680213892448 98.31174660686308 -257.5184501952355
    vertex 186.29680213892448 111.61285786742977 -261.13022162758176
    vertex 186.29680213892448 111.56174660686337 -261.5184501952355
  endloop
endfacet
facet normal -1.0 0.0 0.0
  outer loop
    vertex 186.29680213892448 111.61285786742977 -261.13022162758176
    vertex 186.29680213892448 98.31174660686308 -257.5184501952355
    vertex 186.29680213892448 111.76270850118671 -260.7684501952355
  endloop
endfacet
facet normal -1.0 0.0 0.0
  outer loop
    vertex 186.29680213892448 111.76270850118671 -260.7684501952355
    vertex 186.29680213892448 98.31174660686308 -257.5184501952355
    vertex 186.29680213892448 112.00108643508356 -260.4577900234557
  endloop
endfacet
facet normal -1.0 0.0 0.0
  outer loop
    vertex 186.29680213892448 112.00108643508356 -260.4577900234557
    vertex 186.29680213892448 98.31174660686308 -257.5184501952355
    vertex 186.29680213892448 112.31174660686338 -260.21941208955883
  endloop
endfacet
facet normal -1.0 0.0 0.0
  outer loop
    vertex 186.29680213892448 112.31174660686338 -260.21941208955883
    vertex 186.29680213892448 98.31174660686308 -257.5184501952355
    vertex 186.29680213892448 112.67351803920961 -260.06956145580193
  endloop
endfacet
facet normal -1.0 0.0 0.0
  outer loop
    vertex 186.29680213892448 112.67351803920961 -260.06956145580193
    vertex 186.29680213892448 98.31174660686308 -257.5184501952355
    vertex 186.29680213892448 113.0617466068634 -260.0184501952355
  endloop
endfacet
facet normal -1.0 0.0 0.0
  outer loop
    vertex 186.29680213892448 113.0617466068634 -260.0184501952355
    vertex 186.29680213892448 98.31174660686308 -257.5184501952355
    vertex 186.29680213892448 153.81174660686307 -257.5184501952355
  endloop
endfacet
facet normal -1.0 0.0 0.0
  outer loop
    vertex 186.29680213892448 113.0617466068634 -260.0184501952355
    vertex 186.29680213892448 153.81174660686307 -257.5184501952355
    vertex 186.29680213892448 113.44997517451716 -260.06956145580193
  endloop
endfacet
facet normal -1.0 0.0 0.0
  outer loop
    vertex 186.29680213892448 113.44997517451716 -260.06956145580193
    vertex 186.29680213892448 153.81174660686307 -257.5184501952355
    vertex 186.29680213892448 113.8117466068634 -260.21941208955883
  endloop
endfacet
facet normal -1.0 0.0 0.0
  outer loop
    vertex 186.29680213892448 113.8117466068634 -260.21941208955883
    vertex 186.29680213892448 153.81174660686307 -257.5184501952355
    vertex 186.29680213892448 114.12240677864321 -260.4577900234557
  endloop
endfacet
facet normal -1.0 0.0 0.0
  outer loop
    vertex 186.29680213892448 114.12240677864321 -260.4577900234557
    vertex 186.29680213892448 153.81174660686307 -257.5184501952355
    vertex 186.29680213892448 114.36078471254007 -260.7684501952355
  endloop
endfacet
facet normal -1.0 0.0 0.0
  outer loop
    vertex 186.29680213892448 114.36078471254007 -260.7684501952355
    vertex 186.29680213892448 153.81174660686307 -257.5184501952355
    vertex 186.29680213892448 114.51063534629701 -261.13022162758176
  endloop
endfacet
facet normal -1.0 0.0 0.0
  outer loop
    vertex 186.29680213892448 114.51063534629701 -261.13022162758176
    vertex 186.29680213892448 153.81174660686307 -257.5184501952355
    vertex 186.29680213892448 114.56174660686341 -261.5184501952355
  endloop
endfacet
facet normal -1.0 0.0 0.0
  outer loop
    vertex 186.29680213892448 114.56174660686341 -261.5184501952355
    vertex 186.29680213892448 153.81174660686307 -257.5184501952355
    vertex 186.29680213892442 138.6710336258205 -260.0709958325404
  endloop
endfacet
facet normal -1.0 0.0 0.0
  outer loop
    vertex 186.29680213892448 114.56174660686341 -261.5184501952355
    vertex 186.29680213892442 138.6710336258205 -260.0709958325404
    vertex 186.29680213892442 138.30966165560324 -260.2210119289288
  endloop
endfacet
facet normal -1.0 0.0 0.0
  outer loop
    vertex 186.29680213892448 114.56174660686341 -261.5184501952355
    vertex 186.29680213892442 138.30966165560324 -260.2210119289288
    vertex 186.29680213892442 137.99943015949066 -260.45944629904795
  endloop
endfacet
facet normal -1.0 0.0 0.0
  outer loop
    vertex 186.29680213892448 114.56174660686341 -261.5184501952355
    vertex 186.29680213892442 137.99943015949066 -260.45944629904795
    vertex 186.29680213892442 137.76148090126102 -260.77005003460556
  endloop
endfacet
facet normal -1.0 0.0 0.0
  outer loop
    vertex 186.29680213892448 114.56174660686341 -261.5184501952355
    vertex 186.29680213892442 137.76148090126102 -260.77005003460556
    vertex 186.29680213892442 137.61202972963304 -261.1316560043203
  endloop
endfacet
facet normal -1.0 0.0 0.0
  outer loop
    vertex 186.29680213892448 114.56174660686341 -261.5184501952355
    vertex 186.29680213892442 137.61202972963304 -261.1316560043203
    vertex 186.29680213892442 137.56126149497334 -261.5196213589383
  endloop
endfacet
facet normal -1.0 0.0 0.0
  outer loop
    vertex 186.29680213892442 138.6710336258205 -260.0709958325404
    vertex 186.29680213892448 153.81174660686307 -257.5184501952355
    vertex 186.29680213892442 139.05891916756764 -260.0196213589382
  endloop
endfacet
facet normal -1.0 0.0 0.0
  outer loop
    vertex 186.29680213892442 139.05891916756764 -260.0196213589382
    vertex 186.29680213892448 153.81174660686307 -257.5184501952355
    vertex 186.29680213892442 139.44688452218566 -260.070389593598
  endloop
endfacet
facet normal -1.0 0.0 0.0
  outer loop
    vertex 186.29680213892442 139.44688452218566 -260.070389593598
    vertex 186.29680213892448 153.81174660686307 -257.5184501952355
    vertex 186.29680213892442 139.80849049190041 -260.219840765226
  endloop
endfacet
facet normal -1.0 0.0 0.0
  outer loop
    vertex 186.29680213892442 139.80849049190041 -260.219840765226
    vertex 186.29680213892448 153.81174660686307 -257.5184501952355
    vertex 186.29680213892442 140.11909422745802 -260.45779002345563
  endloop
endfacet
facet normal -1.0 0.0 0.0
  outer loop
    vertex 186.29680213892442 140.11909422745802 -260.45779002345563
    vertex 186.29680213892448 153.81174660686307 -257.5184501952355
    vertex 186.29680213892442 140.35752859757713 -260.76802151956815
  endloop
endfacet
facet normal -1.0 0.0 0.0
  outer loop
    vertex 186.29680213892442 140.35752859757713 -260.76802151956815
    vertex 186.29680213892448 153.81174660686307 -257.5184501952355
    vertex 186.29680213892442 140.50754469396554 -261.12939348978546
  endloop
endfacet
facet normal -1.0 0.0 0.0
  outer loop
    vertex 186.29680213892442 140.50754469396554 -261.12939348978546
    vertex 186.29680213892448 153.81174660686307 -257.5184501952355
    vertex 186.29680213892442 140.55891916756775 -261.5172790315326
  endloop
endfacet
facet normal -1.0 0.0 0.0
  outer loop
    vertex 186.29680213892448 98.31174660686304 -269.5184501952355
    vertex 186.29680213892448 112.67351803920961 -262.96733893466916
    vertex 186.29680213892448 153.81174660686315 -269.5184501952355
  endloop
endfacet
facet normal -1.0 0.0 0.0
  outer loop
    vertex 186.29680213892448 112.67351803920961 -262.96733893466916
    vertex 186.29680213892448 98.31174660686304 -269.5184501952355
    vertex 186.29680213892448 98.31174660686308 -257.5184501952355
  endloop
endfacet
facet normal -1.0 0.0 0.0
  outer loop
    vertex 186.29680213892448 112.67351803920961 -262.96733893466916
    vertex 186.29680213892448 98.31174660686308 -257.5184501952355
    vertex 186.29680213892448 112.31174660686338 -262.8174883009122
  endloop
endfacet
facet normal -1.0 0.0 0.0
  outer loop
    vertex 186.29680213892448 112.31174660686338 -262.8174883009122
    vertex 186.29680213892448 98.31174660686308 -257.5184501952355
    vertex 186.29680213892448 112.00108643508356 -262.57911036701535
  endloop
endfacet
facet normal -1.0 0.0 0.0
  outer loop
    vertex 186.29680213892448 112.00108643508356 -262.57911036701535
    vertex 186.29680213892448 98.31174660686308 -257.5184501952355
    vertex 186.29680213892448 111.76270850118671 -262.2684501952355
  endloop
endfacet
facet normal -1.0 0.0 0.0
  outer loop
    vertex 186.29680213892448 111.76270850118671 -262.2684501952355
    vertex 186.29680213892448 98.31174660686308 -257.5184501952355
    vertex 186.29680213892448 111.61285786742977 -261.9066787628893
  endloop
endfacet
facet normal -1.0 0.0 0.0
  outer loop
    vertex 186.29680213892448 111.61285786742977 -261.9066787628893
    vertex 186.29680213892448 98.31174660686308 -257.5184501952355
    vertex 186.29680213892448 111.56174660686337 -261.5184501952355
  endloop
endfacet
facet normal -1.0 0.0 0.0
  outer loop
    vertex 186.29680213892448 153.81174660686315 -269.5184501952355
    vertex 186.29680213892448 112.67351803920961 -262.96733893466916
    vertex 186.29680213892448 113.0617466068634 -263.0184501952355
  endloop
endfacet
facet normal -1.0 0.0 0.0
  outer loop
    vertex 186.29680213892448 153.81174660686315 -269.5184501952355
    vertex 186.29680213892448 113.0617466068634 -263.0184501952355
    vertex 186.29680213892448 113.44997517451716 -262.96733893466916
  endloop
endfacet
facet normal -1.0 0.0 0.0
  outer loop
    vertex 186.29680213892448 153.81174660686315 -269.5184501952355
    vertex 186.29680213892448 113.44997517451716 -262.96733893466916
    vertex 186.29680213892448 113.8117466068634 -262.8174883009122
  endloop
endfacet
facet normal -1.0 0.0 0.0
  outer loop
    vertex 186.29680213892448 153.81174660686315 -269.5184501952355
    vertex 186.29680213892448 113.8117466068634 -262.8174883009122
    vertex 186.29680213892448 114.12240677864321 -262.57911036701535
  endloop
endfacet
facet normal -1.0 0.0 0.0
  outer loop
    vertex 186.29680213892448 153.81174660686315 -269.5184501952355
    vertex 186.29680213892448 114.12240677864321 -262.57911036701535
    vertex 186.29680213892448 114.36078471254007 -262.2684501952355
  endloop
endfacet
facet normal -1.0 0.0 0.0
  outer loop
    vertex 186.29680213892448 153.81174660686315 -269.5184501952355
    vertex 186.29680213892448 114.36078471254007 -262.2684501952355
    vertex 186.29680213892448 114.51063534629701 -261.9066787628893
  endloop
endfacet
facet normal -1.0 0.0 0.0
  outer loop
    vertex 186.29680213892448 153.81174660686315 -269.5184501952355
    vertex 186.29680213892448 114.51063534629701 -261.9066787628893
    vertex 186.29680213892448 114.56174660686341 -261.5184501952355
  endloop
endfacet
facet normal -1.0 0.0 0.0
  outer loop
    vertex 186.29680213892448 153.81174660686315 -269.5184501952355
    vertex 186.29680213892448 114.56174660686341 -261.5184501952355
    vertex 186.29680213892442 138.31169017064065 -262.81705962524495
  endloop
endfacet
facet normal -1.0 0.0 0.0
  outer loop
    vertex 186.29680213892442 138.31169017064065 -262.81705962524495
    vertex 186.29680213892448 114.56174660686341 -261.5184501952355
    vertex 186.29680213892442 138.00108643508304 -262.5791103670153
  endloop
endfacet
facet normal -1.0 0.0 0.0
  outer loop
    vertex 186.29680213892442 138.00108643508304 -262.5791103670153
    vertex 186.29680213892448 114.56174660686341 -261.5184501952355
    vertex 186.29680213892442 137.76265206496393 -262.26887887090277
  endloop
endfacet
facet normal -1.0 0.0 0.0
  outer loop
    vertex 186.29680213892442 137.76265206496393 -262.26887887090277
    vertex 186.29680213892448 114.56174660686341 -261.5184501952355
    vertex 186.29680213892442 137.61263596857552 -261.90750690068546
  endloop
endfacet
facet normal -1.0 0.0 0.0
  outer loop
    vertex 186.29680213892442 137.61263596857552 -261.90750690068546
    vertex 186.29680213892448 114.56174660686341 -261.5184501952355
    vertex 186.29680213892442 137.56126149497334 -261.5196213589383
  endloop
endfacet
facet normal -1.0 0.0 0.0
  outer loop
    vertex 186.29680213892448 153.81174660686315 -269.5184501952355
    vertex 186.29680213892442 138.31169017064065 -262.81705962524495
    vertex 186.29680213892442 138.6732961403554 -262.9665107968729
  endloop
endfacet
facet normal -1.0 0.0 0.0
  outer loop
    vertex 186.29680213892448 153.81174660686315 -269.5184501952355
    vertex 186.29680213892442 138.6732961403554 -262.9665107968729
    vertex 186.29680213892442 139.06126149497342 -263.0172790315326
  endloop
endfacet
facet normal -1.0 0.0 0.0
  outer loop
    vertex 186.29680213892448 153.81174660686315 -269.5184501952355
    vertex 186.29680213892442 139.06126149497342 -263.0172790315326
    vertex 186.29680213892442 139.44914703672055 -262.9659045579305
  endloop
endfacet
facet normal -1.0 0.0 0.0
  outer loop
    vertex 186.29680213892448 153.81174660686315 -269.5184501952355
    vertex 186.29680213892442 139.44914703672055 -262.9659045579305
    vertex 186.29680213892442 139.81051900693782 -262.8158884615421
  endloop
endfacet
facet normal -1.0 0.0 0.0
  outer loop
    vertex 186.29680213892448 153.81174660686315 -269.5184501952355
    vertex 186.29680213892442 139.81051900693782 -262.8158884615421
    vertex 186.29680213892442 140.12075050305043 -262.57745409142296
  endloop
endfacet
facet normal -1.0 0.0 0.0
  outer loop
    vertex 186.29680213892448 153.81174660686315 -269.5184501952355
    vertex 186.29680213892442 140.12075050305043 -262.57745409142296
    vertex 186.29680213892442 140.35869976128004 -262.26685035586536
  endloop
endfacet
facet normal -1.0 0.0 0.0
  outer loop
    vertex 186.29680213892448 153.81174660686315 -269.5184501952355
    vertex 186.29680213892442 140.35869976128004 -262.26685035586536
    vertex 186.29680213892442 140.50815093290805 -261.9052443861506
  endloop
endfacet
facet normal -1.0 0.0 0.0
  outer loop
    vertex 186.29680213892448 153.81174660686315 -269.5184501952355
    vertex 186.29680213892442 140.50815093290805 -261.9052443861506
    vertex 186.29680213892442 140.55891916756775 -261.5172790315326
  endloop
endfacet
facet normal -1.0 0.0 0.0
  outer loop
    vertex 186.29680213892448 153.81174660686315 -269.5184501952355
    vertex 186.29680213892442 140.55891916756775 -261.5172790315326
    vertex 186.29680213892448 153.81174660686307 -257.5184501952355
  endloop
endfacet
facet normal 0.0 1.0 -6.832497530713982e-16
  outer loop
    vertex 115.79680213892449 98.31174660686308 -257.5184501952355
    vertex 186.29680213892448 98.31174660686304 -269.5184501952355
    vertex 115.79680213892449 98.31174660686304 -269.5184501952355
  endloop
endfacet
facet normal 0.0 1.0 -6.832497530713982e-16
  outer loop
    vertex 186.29680213892448 98.31174660686304 -269.5184501952355
    vertex 115.79680213892449 98.31174660686308 -257.5184501952355
    vertex 186.29680213892448 98.31174660686308 -257.5184501952355
  endloop
endfacet
facet normal 1.0 0.0 0.0
  outer loop
    vertex 115.79680213892449 153.81174660686315 -269.5184501952355
    vertex 115.79680213892449 98.31174660686308 -257.5184501952355
    vertex 115.79680213892449 98.31174660686304 -269.5184501952355
  endloop
endfacet
facet normal 1.0 0.0 0.0
  outer loop
    vertex 115.79680213892449 98.31174660686308 -257.5184501952355
    vertex 115.79680213892449 153.81174660686315 -269.5184501952355
    vertex 115.79680213892449 153.81174660686307 -257.5184501952355
  endloop
endfacet
facet normal -3.6064448810401644e-32 -1.0 1.4611328020513236e-16
  outer loop
    vertex 182.54680213892448 143.0617466068631 -267.5184501952355
    vertex 119.54680213892448 143.0617466068631 -269.5184501952355
    vertex 182.54680213892448 143.0617466068631 -269.5184501952355
  endloop
endfacet
facet normal -3.6064448810401644e-32 -1.0 1.4611328020513236e-16
  outer loop
    vertex 119.54680213892448 143.0617466068631 -269.5184501952355
    vertex 182.54680213892448 143.0617466068631 -267.5184501952355
    vertex 119.54680213892448 143.0617466068631 -267.5184501952355
  endloop
endfacet
facet normal 1.0 2.457245540255958e-32 4.47613727388555e-17
  outer loop
    vertex 182.54680213892448 150.0617466068631 -269.5184501952355
    vertex 182.54680213892448 143.0617466068631 -267.5184501952355
    vertex 182.54680213892448 143.0617466068631 -269.5184501952355
  endloop
endfacet
facet normal 1.0 2.457245540255958e-32 4.47613727388555e-17
  outer loop
    vertex 182.54680213892448 143.0617466068631 -267.5184501952355
    vertex 182.54680213892448 150.0617466068631 -269.5184501952355
    vertex 182.54680213892448 150.0617466068631 -267.5184501952355
  endloop
endfacet
facet normal 0.0 1.0 -1.4611328020513236e-16
  outer loop
    vertex 119.54680213892448 150.0617466068631 -267.5184501952355
    vertex 182.54680213892448 150.0617466068631 -269.5184501952355
    vertex 119.54680213892448 150.0617466068631 -269.5184501952355
  endloop
endfacet
facet normal 0.0 1.0 -1.4611328020513236e-16
  outer loop
    vertex 182.54680213892448 150.0617466068631 -269.5184501952355
    vertex 119.54680213892448 150.0617466068631 -267.5184501952355
    vertex 182.54680213892448 150.0617466068631 -267.5184501952355
  endloop
endfacet
facet normal -1.0 1.1491993407842055e-32 -4.47613727388555e-17
  outer loop
    vertex 119.54680213892448 150.0617466068631 -267.5184501952355
    vertex 119.54680213892448 143.0617466068631 -269.5184501952355
    vertex 119.54680213892448 143.0617466068631 -267.5184501952355
  endloop
endfacet
facet normal -1.0 1.1491993407842055e-32 -4.47613727388555e-17
  outer loop
    vertex 119.54680213892448 143.0617466068631 -269.5184501952355
    vertex 119.54680213892448 150.0617466068631 -267.5184501952355
    vertex 119.54680213892448 150.0617466068631 -269.5184501952355
  endloop
endfacet
facet normal 1.0 3.0583196870959845e-32 4.47613727388555e-17
  outer loop
    vertex 182.54680213892448 108.06174660686305 -269.5184501952355
    vertex 182.54680213892448 102.06174660686305 -267.5184501952355
    vertex 182.54680213892448 102.06174660686305 -269.5184501952355
  endloop
endfacet
facet normal 1.0 3.0583196870959845e-32 4.47613727388555e-17
  outer loop
    vertex 182.54680213892448 102.06174660686305 -267.5184501952355
    vertex 182.54680213892448 108.06174660686305 -269.5184501952355
    vertex 182.54680213892448 108.06174660686305 -267.5184501952355
  endloop
endfacet
facet normal 0.0 1.0 -2.132553393134154e-16
  outer loop
    vertex 119.54680213892448 108.06174660686305 -267.5184501952355
    vertex 182.54680213892448 108.06174660686305 -269.5184501952355
    vertex 119.54680213892448 108.06174660686305 -269.5184501952355
  endloop
endfacet
facet normal 0.0 1.0 -2.132553393134154e-16
  outer loop
    vertex 182.54680213892448 108.06174660686305 -269.5184501952355
    vertex 119.54680213892448 108.06174660686305 -267.5184501952355
    vertex 182.54680213892448 108.06174660686305 -267.5184501952355
  endloop
endfacet
facet normal -1.0 1.1491993407842054e-32 -4.47613727388555e-17
  outer loop
    vertex 119.54680213892448 108.06174660686305 -267.5184501952355
    vertex 119.54680213892448 102.06174660686305 -269.5184501952355
    vertex 119.54680213892448 102.06174660686305 -267.5184501952355
  endloop
endfacet
facet normal -1.0 1.1491993407842054e-32 -4.47613727388555e-17
  outer loop
    vertex 119.54680213892448 102.06174660686305 -269.5184501952355
    vertex 119.54680213892448 108.06174660686305 -267.5184501952355
    vertex 119.54680213892448 108.06174660686305 -269.5184501952355
  endloop
endfacet
facet normal -4.2075190278801893e-32 -1.0 2.132553393134154e-16
  outer loop
    vertex 182.54680213892448 102.06174660686305 -267.5184501952355
    vertex 119.54680213892448 102.06174660686305 -269.5184501952355
    vertex 182.54680213892448 102.06174660686305 -269.5184501952355
  endloop
endfacet
facet normal -4.2075190278801893e-32 -1.0 2.132553393134154e-16
  outer loop
    vertex 119.54680213892448 102.06174660686305 -269.5184501952355
    vertex 182.54680213892448 102.06174660686305 -267.5184501952355
    vertex 119.54680213892448 102.06174660686305 -267.5184501952355
  endloop
endfacet
facet normal 0.0 -0.793353340291213 -0.6087614290087495
  outer loop
    vertex 186.29680213892448 111.76270850118671 -262.2684501952355
    vertex 184.54680213892448 112.00108643508356 -262.57911036701535
    vertex 186.29680213892448 112.00108643508356 -262.57911036701535
  endloop
endfacet
facet normal 0.0 -0.793353340291213 -0.6087614290087495
  outer loop
    vertex 184.54680213892448 112.00108643508356 -262.57911036701535
    vertex 186.29680213892448 111.76270850118671 -262.2684501952355
    vertex 184.54680213892448 111.76270850118671 -262.2684501952355
  endloop
endfacet
facet normal 0.0 -0.9238795325112844 -0.38268343236509544
  outer loop
    vertex 186.29680213892448 111.61285786742977 -261.9066787628893
    vertex 184.54680213892448 111.76270850118671 -262.2684501952355
    vertex 186.29680213892448 111.76270850118671 -262.2684501952355
  endloop
endfacet
facet normal 0.0 -0.9238795325112844 -0.38268343236509544
  outer loop
    vertex 184.54680213892448 111.76270850118671 -262.2684501952355
    vertex 186.29680213892448 111.61285786742977 -261.9066787628893
    vertex 184.54680213892448 111.61285786742977 -261.9066787628893
  endloop
endfacet
facet normal 0.0 -0.9914448613738113 -0.1305261922200458
  outer loop
    vertex 186.29680213892448 111.56174660686337 -261.5184501952355
    vertex 184.54680213892448 111.61285786742977 -261.9066787628893
    vertex 186.29680213892448 111.61285786742977 -261.9066787628893
  endloop
endfacet
facet normal 0.0 -0.9914448613738113 -0.1305261922200458
  outer loop
    vertex 184.54680213892448 111.61285786742977 -261.9066787628893
    vertex 186.29680213892448 111.56174660686337 -261.5184501952355
    vertex 184.54680213892448 111.56174660686337 -261.5184501952355
  endloop
endfacet
facet normal 0.0 -0.9914448613738113 0.1305261922200453
  outer loop
    vertex 186.29680213892448 111.61285786742977 -261.13022162758176
    vertex 184.54680213892448 111.56174660686337 -261.5184501952355
    vertex 186.29680213892448 111.56174660686337 -261.5184501952355
  endloop
endfacet
facet normal 0.0 -0.9914448613738113 0.1305261922200453
  outer loop
    vertex 184.54680213892448 111.56174660686337 -261.5184501952355
    vertex 186.29680213892448 111.61285786742977 -261.13022162758176
    vertex 184.54680213892448 111.61285786742977 -261.13022162758176
  endloop
endfacet
facet normal 0.0 -0.9238795325112846 0.382683432365095
  outer loop
    vertex 186.29680213892448 111.76270850118671 -260.7684501952355
    vertex 184.54680213892448 111.61285786742977 -261.13022162758176
    vertex 186.29680213892448 111.61285786742977 -261.13022162758176
  endloop
endfacet
facet normal 0.0 -0.9238795325112846 0.382683432365095
  outer loop
    vertex 184.54680213892448 111.61285786742977 -261.13022162758176
    vertex 186.29680213892448 111.76270850118671 -260.7684501952355
    vertex 184.54680213892448 111.76270850118671 -260.7684501952355
  endloop
endfacet
facet normal 0.0 -0.7933533402912134 0.6087614290087492
  outer loop
    vertex 186.29680213892448 112.00108643508356 -260.4577900234557
    vertex 184.54680213892448 111.76270850118671 -260.7684501952355
    vertex 186.29680213892448 111.76270850118671 -260.7684501952355
  endloop
endfacet
facet normal 0.0 -0.7933533402912134 0.6087614290087492
  outer loop
    vertex 184.54680213892448 111.76270850118671 -260.7684501952355
    vertex 186.29680213892448 112.00108643508356 -260.4577900234557
    vertex 184.54680213892448 112.00108643508356 -260.4577900234557
  endloop
endfacet
facet normal 0.0 -0.6087614290087495 0.793353340291213
  outer loop
    vertex 186.29680213892448 112.00108643508356 -260.4577900234557
    vertex 184.54680213892448 112.31174660686338 -260.21941208955883
    vertex 184.54680213892448 112.00108643508356 -260.4577900234557
  endloop
endfacet
facet normal 0.0 -0.6087614290087495 0.793353340291213
  outer loop
    vertex 184.54680213892448 112.31174660686338 -260.21941208955883
    vertex 186.29680213892448 112.00108643508356 -260.4577900234557
    vertex 186.29680213892448 112.31174660686338 -260.21941208955883
  endloop
endfacet
facet normal 0.0 -0.38268343236509544 0.9238795325112844
  outer loop
    vertex 186.29680213892448 112.31174660686338 -260.21941208955883
    vertex 184.54680213892448 112.67351803920961 -260.06956145580193
    vertex 184.54680213892448 112.31174660686338 -260.21941208955883
  endloop
endfacet
facet normal 0.0 -0.38268343236509544 0.9238795325112844
  outer loop
    vertex 184.54680213892448 112.67351803920961 -260.06956145580193
    vertex 186.29680213892448 112.31174660686338 -260.21941208955883
    vertex 186.29680213892448 112.67351803920961 -260.06956145580193
  endloop
endfacet
facet normal 0.0 -0.1305261922200458 0.9914448613738113
  outer loop
    vertex 186.29680213892448 112.67351803920961 -260.06956145580193
    vertex 184.54680213892448 113.0617466068634 -260.0184501952355
    vertex 184.54680213892448 112.67351803920961 -260.06956145580193
  endloop
endfacet
facet normal 0.0 -0.1305261922200458 0.9914448613738113
  outer loop
    vertex 184.54680213892448 113.0617466068634 -260.0184501952355
    vertex 186.29680213892448 112.67351803920961 -260.06956145580193
    vertex 186.29680213892448 113.0617466068634 -260.0184501952355
  endloop
endfacet
facet normal 0.0 0.1305261922200453 0.9914448613738113
  outer loop
    vertex 186.29680213892448 113.0617466068634 -260.0184501952355
    vertex 184.54680213892448 113.44997517451716 -260.06956145580193
    vertex 184.54680213892448 113.0617466068634 -260.0184501952355
  endloop
endfacet
facet normal 0.0 0.1305261922200453 0.9914448613738113
  outer loop
    vertex 184.54680213892448 113.44997517451716 -260.06956145580193
    vertex 186.29680213892448 113.0617466068634 -260.0184501952355
    vertex 186.29680213892448 113.44997517451716 -260.06956145580193
  endloop
endfacet
facet normal 0.0 0.382683432365095 0.9238795325112846
  outer loop
    vertex 186.29680213892448 113.44997517451716 -260.06956145580193
    vertex 184.54680213892448 113.8117466068634 -260.21941208955883
    vertex 184.54680213892448 113.44997517451716 -260.06956145580193
  endloop
endfacet
facet normal 0.0 0.382683432365095 0.9238795325112846
  outer loop
    vertex 184.54680213892448 113.8117466068634 -260.21941208955883
    vertex 186.29680213892448 113.44997517451716 -260.06956145580193
    vertex 186.29680213892448 113.8117466068634 -260.21941208955883
  endloop
endfacet
facet normal 0.0 0.6087614290087492 0.7933533402912134
  outer loop
    vertex 186.29680213892448 113.8117466068634 -260.21941208955883
    vertex 184.54680213892448 114.12240677864321 -260.4577900234557
    vertex 184.54680213892448 113.8117466068634 -260.21941208955883
  endloop
endfacet
facet normal 0.0 0.6087614290087492 0.7933533402912134
  outer loop
    vertex 184.54680213892448 114.12240677864321 -260.4577900234557
    vertex 186.29680213892448 113.8117466068634 -260.21941208955883
    vertex 186.29680213892448 114.12240677864321 -260.4577900234557
  endloop
endfacet
facet normal 0.0 0.793353340291213 0.6087614290087495
  outer loop
    vertex 184.54680213892448 114.12240677864321 -260.4577900234557
    vertex 186.29680213892448 114.36078471254007 -260.7684501952355
    vertex 184.54680213892448 114.36078471254007 -260.7684501952355
  endloop
endfacet
facet normal 0.0 0.793353340291213 0.6087614290087495
  outer loop
    vertex 186.29680213892448 114.36078471254007 -260.7684501952355
    vertex 184.54680213892448 114.12240677864321 -260.4577900234557
    vertex 186.29680213892448 114.12240677864321 -260.4577900234557
  endloop
endfacet
facet normal 0.0 0.9238795325112844 0.38268343236509544
  outer loop
    vertex 184.54680213892448 114.36078471254007 -260.7684501952355
    vertex 186.29680213892448 114.51063534629701 -261.13022162758176
    vertex 184.54680213892448 114.51063534629701 -261.13022162758176
  endloop
endfacet
facet normal 0.0 0.9238795325112844 0.38268343236509544
  outer loop
    vertex 186.29680213892448 114.51063534629701 -261.13022162758176
    vertex 184.54680213892448 114.36078471254007 -260.7684501952355
    vertex 186.29680213892448 114.36078471254007 -260.7684501952355
  endloop
endfacet
facet normal 0.0 0.9914448613738113 0.1305261922200458
  outer loop
    vertex 184.54680213892448 114.51063534629701 -261.13022162758176
    vertex 186.29680213892448 114.56174660686341 -261.5184501952355
    vertex 184.54680213892448 114.56174660686341 -261.5184501952355
  endloop
endfacet
facet normal 0.0 0.9914448613738113 0.1305261922200458
  outer loop
    vertex 186.29680213892448 114.56174660686341 -261.5184501952355
    vertex 184.54680213892448 114.51063534629701 -261.13022162758176
    vertex 186.29680213892448 114.51063534629701 -261.13022162758176
  endloop
endfacet
facet normal 0.0 0.9914448613738113 -0.1305261922200453
  outer loop
    vertex 184.54680213892448 114.56174660686341 -261.5184501952355
    vertex 186.29680213892448 114.51063534629701 -261.9066787628893
    vertex 184.54680213892448 114.51063534629701 -261.9066787628893
  endloop
endfacet
facet normal 0.0 0.9914448613738113 -0.1305261922200453
  outer loop
    vertex 186.29680213892448 114.51063534629701 -261.9066787628893
    vertex 184.54680213892448 114.56174660686341 -261.5184501952355
    vertex 186.29680213892448 114.56174660686341 -261.5184501952355
  endloop
endfacet
facet normal 0.0 0.9238795325112846 -0.382683432365095
  outer loop
    vertex 184.54680213892448 114.51063534629701 -261.9066787628893
    vertex 186.29680213892448 114.36078471254007 -262.2684501952355
    vertex 184.54680213892448 114.36078471254007 -262.2684501952355
  endloop
endfacet
facet normal 0.0 0.9238795325112846 -0.382683432365095
  outer loop
    vertex 186.29680213892448 114.36078471254007 -262.2684501952355
    vertex 184.54680213892448 114.51063534629701 -261.9066787628893
    vertex 186.29680213892448 114.51063534629701 -261.9066787628893
  endloop
endfacet
facet normal 0.0 0.7933533402912134 -0.6087614290087492
  outer loop
    vertex 184.54680213892448 114.36078471254007 -262.2684501952355
    vertex 186.29680213892448 114.12240677864321 -262.57911036701535
    vertex 184.54680213892448 114.12240677864321 -262.57911036701535
  endloop
endfacet
facet normal 0.0 0.7933533402912134 -0.6087614290087492
  outer loop
    vertex 186.29680213892448 114.12240677864321 -262.57911036701535
    vertex 184.54680213892448 114.36078471254007 -262.2684501952355
    vertex 186.29680213892448 114.36078471254007 -262.2684501952355
  endloop
endfacet
facet normal 0.0 0.6087614290087495 -0.793353340291213
  outer loop
    vertex 186.29680213892448 114.12240677864321 -262.57911036701535
    vertex 184.54680213892448 113.8117466068634 -262.8174883009122
    vertex 184.54680213892448 114.12240677864321 -262.57911036701535
  endloop
endfacet
facet normal 0.0 0.6087614290087495 -0.793353340291213
  outer loop
    vertex 184.54680213892448 113.8117466068634 -262.8174883009122
    vertex 186.29680213892448 114.12240677864321 -262.57911036701535
    vertex 186.29680213892448 113.8117466068634 -262.8174883009122
  endloop
endfacet
facet normal 0.0 0.38268343236509544 -0.9238795325112844
  outer loop
    vertex 186.29680213892448 113.8117466068634 -262.8174883009122
    vertex 184.54680213892448 113.44997517451716 -262.96733893466916
    vertex 184.54680213892448 113.8117466068634 -262.8174883009122
  endloop
endfacet
facet normal 0.0 0.38268343236509544 -0.9238795325112844
  outer loop
    vertex 184.54680213892448 113.44997517451716 -262.96733893466916
    vertex 186.29680213892448 113.8117466068634 -262.8174883009122
    vertex 186.29680213892448 113.44997517451716 -262.96733893466916
  endloop
endfacet
facet normal 0.0 0.1305261922200458 -0.9914448613738113
  outer loop
    vertex 186.29680213892448 113.44997517451716 -262.96733893466916
    vertex 184.54680213892448 113.0617466068634 -263.0184501952355
    vertex 184.54680213892448 113.44997517451716 -262.96733893466916
  endloop
endfacet
facet normal 0.0 0.1305261922200458 -0.9914448613738113
  outer loop
    vertex 184.54680213892448 113.0617466068634 -263.0184501952355
    vertex 186.29680213892448 113.44997517451716 -262.96733893466916
    vertex 186.29680213892448 113.0617466068634 -263.0184501952355
  endloop
endfacet
facet normal 0.0 -0.1305261922200453 -0.9914448613738113
  outer loop
    vertex 186.29680213892448 113.0617466068634 -263.0184501952355
    vertex 184.54680213892448 112.67351803920961 -262.96733893466916
    vertex 184.54680213892448 113.0617466068634 -263.0184501952355
  endloop
endfacet
facet normal 0.0 -0.1305261922200453 -0.9914448613738113
  outer loop
    vertex 184.54680213892448 112.67351803920961 -262.96733893466916
    vertex 186.29680213892448 113.0617466068634 -263.0184501952355
    vertex 186.29680213892448 112.67351803920961 -262.96733893466916
  endloop
endfacet
facet normal 0.0 -0.382683432365095 -0.9238795325112846
  outer loop
    vertex 186.29680213892448 112.67351803920961 -262.96733893466916
    vertex 184.54680213892448 112.31174660686338 -262.8174883009122
    vertex 184.54680213892448 112.67351803920961 -262.96733893466916
  endloop
endfacet
facet normal 0.0 -0.382683432365095 -0.9238795325112846
  outer loop
    vertex 184.54680213892448 112.31174660686338 -262.8174883009122
    vertex 186.29680213892448 112.67351803920961 -262.96733893466916
    vertex 186.29680213892448 112.31174660686338 -262.8174883009122
  endloop
endfacet
facet normal 0.0 -0.6087614290087492 -0.7933533402912134
  outer loop
    vertex 186.29680213892448 112.31174660686338 -262.8174883009122
    vertex 184.54680213892448 112.00108643508356 -262.57911036701535
    vertex 184.54680213892448 112.31174660686338 -262.8174883009122
  endloop
endfacet
facet normal 0.0 -0.6087614290087492 -0.7933533402912134
  outer loop
    vertex 184.54680213892448 112.00108643508356 -262.57911036701535
    vertex 186.29680213892448 112.31174660686338 -262.8174883009122
    vertex 186.29680213892448 112.00108643508356 -262.57911036701535
  endloop
endfacet
facet normal 0.0 0.12975145158476575 0.9915465499973496
  outer loop
    vertex 186.29680213892442 139.05891916756764 -260.0196213589382
    vertex 184.54680213892442 139.44688452218566 -260.070389593598
    vertex 184.54680213892442 139.05891916756764 -260.0196213589382
  endloop
endfacet
facet normal 0.0 0.12975145158476575 0.9915465499973496
  outer loop
    vertex 184.54680213892442 139.44688452218566 -260.070389593598
    vertex 186.29680213892442 139.05891916756764 -260.0196213589382
    vertex 186.29680213892442 139.44688452218566 -260.070389593598
  endloop
endfacet
facet normal 0.0 0.38196140932922684 0.9241782738104327
  outer loop
    vertex 186.29680213892442 139.44688452218566 -260.070389593598
    vertex 184.54680213892442 139.80849049190041 -260.219840765226
    vertex 184.54680213892442 139.44688452218566 -260.070389593598
  endloop
endfacet
facet normal 0.0 0.38196140932922684 0.9241782738104327
  outer loop
    vertex 184.54680213892442 139.80849049190041 -260.219840765226
    vertex 186.29680213892442 139.44688452218566 -260.070389593598
    vertex 186.29680213892442 139.80849049190041 -260.219840765226
  endloop
endfacet
facet normal 0.0 0.6081413282489812 0.7938287755401444
  outer loop
    vertex 186.29680213892442 139.80849049190041 -260.219840765226
    vertex 184.54680213892442 140.11909422745802 -260.45779002345563
    vertex 184.54680213892442 139.80849049190041 -260.219840765226
  endloop
endfacet
facet normal 0.0 0.6081413282489812 0.7938287755401444
  outer loop
    vertex 184.54680213892442 140.11909422745802 -260.45779002345563
    vertex 186.29680213892442 139.80849049190041 -260.219840765226
    vertex 186.29680213892442 140.11909422745802 -260.45779002345563
  endloop
endfacet
facet normal 0.0 0.7928774206496303 0.6093811580808758
  outer loop
    vertex 184.54680213892442 140.11909422745802 -260.45779002345563
    vertex 186.29680213892442 140.35752859757713 -260.76802151956815
    vertex 184.54680213892442 140.35752859757713 -260.76802151956815
  endloop
endfacet
facet normal 0.0 0.7928774206496303 0.6093811580808758
  outer loop
    vertex 186.29680213892442 140.35752859757713 -260.76802151956815
    vertex 184.54680213892442 140.11909422745802 -260.45779002345563
    vertex 186.29680213892442 140.11909422745802 -260.45779002345563
  endloop
endfacet
facet normal 0.0 0.9235802271249045 0.38340522174836067
  outer loop
    vertex 184.54680213892442 140.35752859757713 -260.76802151956815
    vertex 186.29680213892442 140.50754469396554 -261.12939348978546
    vertex 184.54680213892442 140.50754469396554 -261.12939348978546
  endloop
endfacet
facet normal 0.0 0.9235802271249045 0.38340522174836067
  outer loop
    vertex 186.29680213892442 140.50754469396554 -261.12939348978546
    vertex 184.54680213892442 140.35752859757713 -260.76802151956815
    vertex 186.29680213892442 140.35752859757713 -260.76802151956815
  endloop
endfacet
facet normal 0.0 0.9913425674100946 0.13130085316083134
  outer loop
    vertex 184.54680213892442 140.50754469396554 -261.12939348978546
    vertex 186.29680213892442 140.55891916756775 -261.5172790315326
    vertex 184.54680213892442 140.55891916756775 -261.5172790315326
  endloop
endfacet
facet normal 0.0 0.9913425674100946 0.13130085316083134
  outer loop
    vertex 186.29680213892442 140.55891916756775 -261.5172790315326
    vertex 184.54680213892442 140.50754469396554 -261.12939348978546
    vertex 186.29680213892442 140.50754469396554 -261.12939348978546
  endloop
endfacet
facet normal 0.0 0.9915465499973496 -0.12975145158476575
  outer loop
    vertex 184.54680213892442 140.55891916756775 -261.5172790315326
    vertex 186.29680213892442 140.50815093290805 -261.9052443861506
    vertex 184.54680213892442 140.50815093290805 -261.9052443861506
  endloop
endfacet
facet normal 0.0 0.9915465499973496 -0.12975145158476575
  outer loop
    vertex 186.29680213892442 140.50815093290805 -261.9052443861506
    vertex 184.54680213892442 140.55891916756775 -261.5172790315326
    vertex 186.29680213892442 140.55891916756775 -261.5172790315326
  endloop
endfacet
facet normal 0.0 0.9241782738104327 -0.38196140932922684
  outer loop
    vertex 184.54680213892442 140.50815093290805 -261.9052443861506
    vertex 186.29680213892442 140.35869976128004 -262.26685035586536
    vertex 184.54680213892442 140.35869976128004 -262.26685035586536
  endloop
endfacet
facet normal 0.0 0.9241782738104327 -0.38196140932922684
  outer loop
    vertex 186.29680213892442 140.35869976128004 -262.26685035586536
    vertex 184.54680213892442 140.50815093290805 -261.9052443861506
    vertex 186.29680213892442 140.50815093290805 -261.9052443861506
  endloop
endfacet
facet normal 0.0 0.7938287755401444 -0.6081413282489812
  outer loop
    vertex 184.54680213892442 140.35869976128004 -262.26685035586536
    vertex 186.29680213892442 140.12075050305043 -262.57745409142296
    vertex 184.54680213892442 140.12075050305043 -262.57745409142296
  endloop
endfacet
facet normal 0.0 0.7938287755401444 -0.6081413282489812
  outer loop
    vertex 186.29680213892442 140.12075050305043 -262.57745409142296
    vertex 184.54680213892442 140.35869976128004 -262.26685035586536
    vertex 186.29680213892442 140.35869976128004 -262.26685035586536
  endloop
endfacet
facet normal 0.0 0.6093811580808758 -0.7928774206496303
  outer loop
    vertex 186.29680213892442 140.12075050305043 -262.57745409142296
    vertex 184.54680213892442 139.81051900693782 -262.8158884615421
    vertex 184.54680213892442 140.12075050305043 -262.57745409142296
  endloop
endfacet
facet normal 0.0 0.6093811580808758 -0.7928774206496303
  outer loop
    vertex 184.54680213892442 139.81051900693782 -262.8158884615421
    vertex 186.29680213892442 140.12075050305043 -262.57745409142296
    vertex 186.29680213892442 139.81051900693782 -262.8158884615421
  endloop
endfacet
facet normal 0.0 0.38340522174836067 -0.9235802271249045
  outer loop
    vertex 186.29680213892442 139.81051900693782 -262.8158884615421
    vertex 184.54680213892442 139.44914703672055 -262.9659045579305
    vertex 184.54680213892442 139.81051900693782 -262.8158884615421
  endloop
endfacet
facet normal 0.0 0.38340522174836067 -0.9235802271249045
  outer loop
    vertex 184.54680213892442 139.44914703672055 -262.9659045579305
    vertex 186.29680213892442 139.81051900693782 -262.8158884615421
    vertex 186.29680213892442 139.44914703672055 -262.9659045579305
  endloop
endfacet
facet normal 0.0 0.13130085316083134 -0.9913425674100946
  outer loop
    vertex 186.29680213892442 139.44914703672055 -262.9659045579305
    vertex 184.54680213892442 139.06126149497342 -263.0172790315326
    vertex 184.54680213892442 139.44914703672055 -262.9659045579305
  endloop
endfacet
facet normal 0.0 0.13130085316083134 -0.9913425674100946
  outer loop
    vertex 184.54680213892442 139.06126149497342 -263.0172790315326
    vertex 186.29680213892442 139.44914703672055 -262.9659045579305
    vertex 186.29680213892442 139.06126149497342 -263.0172790315326
  endloop
endfacet
facet normal 0.0 -0.12975145158476575 -0.9915465499973496
  outer loop
    vertex 186.29680213892442 139.06126149497342 -263.0172790315326
    vertex 184.54680213892442 138.6732961403554 -262.9665107968729
    vertex 184.54680213892442 139.06126149497342 -263.0172790315326
  endloop
endfacet
facet normal 0.0 -0.12975145158476575 -0.9915465499973496
  outer loop
    vertex 184.54680213892442 138.6732961403554 -262.9665107968729
    vertex 186.29680213892442 139.06126149497342 -263.0172790315326
    vertex 186.29680213892442 138.6732961403554 -262.9665107968729
  endloop
endfacet
facet normal 0.0 -0.38196140932922684 -0.9241782738104327
  outer loop
    vertex 186.29680213892442 138.6732961403554 -262.9665107968729
    vertex 184.54680213892442 138.31169017064065 -262.81705962524495
    vertex 184.54680213892442 138.6732961403554 -262.9665107968729
  endloop
endfacet
facet normal 0.0 -0.38196140932922684 -0.9241782738104327
  outer loop
    vertex 184.54680213892442 138.31169017064065 -262.81705962524495
    vertex 186.29680213892442 138.6732961403554 -262.9665107968729
    vertex 186.29680213892442 138.31169017064065 -262.81705962524495
  endloop
endfacet
facet normal 0.0 -0.6081413282489812 -0.7938287755401444
  outer loop
    vertex 186.29680213892442 138.31169017064065 -262.81705962524495
    vertex 184.54680213892442 138.00108643508304 -262.5791103670153
    vertex 184.54680213892442 138.31169017064065 -262.81705962524495
  endloop
endfacet
facet normal 0.0 -0.6081413282489812 -0.7938287755401444
  outer loop
    vertex 184.54680213892442 138.00108643508304 -262.5791103670153
    vertex 186.29680213892442 138.31169017064065 -262.81705962524495
    vertex 186.29680213892442 138.00108643508304 -262.5791103670153
  endloop
endfacet
facet normal 0.0 -0.7928774206496303 -0.6093811580808758
  outer loop
    vertex 186.29680213892442 137.76265206496393 -262.26887887090277
    vertex 184.54680213892442 138.00108643508304 -262.5791103670153
    vertex 186.29680213892442 138.00108643508304 -262.5791103670153
  endloop
endfacet
facet normal 0.0 -0.7928774206496303 -0.6093811580808758
  outer loop
    vertex 184.54680213892442 138.00108643508304 -262.5791103670153
    vertex 186.29680213892442 137.76265206496393 -262.26887887090277
    vertex 184.54680213892442 137.76265206496393 -262.26887887090277
  endloop
endfacet
facet normal 0.0 -0.9235802271249045 -0.38340522174836067
  outer loop
    vertex 186.29680213892442 137.61263596857552 -261.90750690068546
    vertex 184.54680213892442 137.76265206496393 -262.26887887090277
    vertex 186.29680213892442 137.76265206496393 -262.26887887090277
  endloop
endfacet
facet normal 0.0 -0.9235802271249045 -0.38340522174836067
  outer loop
    vertex 184.54680213892442 137.76265206496393 -262.26887887090277
    vertex 186.29680213892442 137.61263596857552 -261.90750690068546
    vertex 184.54680213892442 137.61263596857552 -261.90750690068546
  endloop
endfacet
facet normal 0.0 -0.9913425674100946 -0.13130085316083134
  outer loop
    vertex 186.29680213892442 137.56126149497334 -261.5196213589383
    vertex 184.54680213892442 137.61263596857552 -261.90750690068546
    vertex 186.29680213892442 137.61263596857552 -261.90750690068546
  endloop
endfacet
facet normal 0.0 -0.9913425674100946 -0.13130085316083134
  outer loop
    vertex 184.54680213892442 137.61263596857552 -261.90750690068546
    vertex 186.29680213892442 137.56126149497334 -261.5196213589383
    vertex 184.54680213892442 137.56126149497334 -261.5196213589383
  endloop
endfacet
facet normal 0.0 -0.9915465499973496 0.12975145158476575
  outer loop
    vertex 186.29680213892442 137.61202972963304 -261.1316560043203
    vertex 184.54680213892442 137.56126149497334 -261.5196213589383
    vertex 186.29680213892442 137.56126149497334 -261.5196213589383
  endloop
endfacet
facet normal 0.0 -0.9915465499973496 0.12975145158476575
  outer loop
    vertex 184.54680213892442 137.56126149497334 -261.5196213589383
    vertex 186.29680213892442 137.61202972963304 -261.1316560043203
    vertex 184.54680213892442 137.61202972963304 -261.1316560043203
  endloop
endfacet
facet normal 0.0 -0.9241782738104327 0.38196140932922684
  outer loop
    vertex 186.29680213892442 137.76148090126102 -260.77005003460556
    vertex 184.54680213892442 137.61202972963304 -261.1316560043203
    vertex 186.29680213892442 137.61202972963304 -261.1316560043203
  endloop
endfacet
facet normal 0.0 -0.9241782738104327 0.38196140932922684
  outer loop
    vertex 184.54680213892442 137.61202972963304 -261.1316560043203
    vertex 186.29680213892442 137.76148090126102 -260.77005003460556
    vertex 184.54680213892442 137.76148090126102 -260.77005003460556
  endloop
endfacet
facet normal 0.0 -0.7938287755401444 0.6081413282489812
  outer loop
    vertex 186.29680213892442 137.99943015949066 -260.45944629904795
    vertex 184.54680213892442 137.76148090126102 -260.77005003460556
    vertex 186.29680213892442 137.76148090126102 -260.77005003460556
  endloop
endfacet
facet normal 0.0 -0.7938287755401444 0.6081413282489812
  outer loop
    vertex 184.54680213892442 137.76148090126102 -260.77005003460556
    vertex 186.29680213892442 137.99943015949066 -260.45944629904795
    vertex 184.54680213892442 137.99943015949066 -260.45944629904795
  endloop
endfacet
facet normal 0.0 -0.6093811580808758 0.7928774206496303
  outer loop
    vertex 186.29680213892442 137.99943015949066 -260.45944629904795
    vertex 184.54680213892442 138.30966165560324 -260.2210119289288
    vertex 184.54680213892442 137.99943015949066 -260.45944629904795
  endloop
endfacet
facet normal 0.0 -0.6093811580808758 0.7928774206496303
  outer loop
    vertex 184.54680213892442 138.30966165560324 -260.2210119289288
    vertex 186.29680213892442 137.99943015949066 -260.45944629904795
    vertex 186.29680213892442 138.30966165560324 -260.2210119289288
  endloop
endfacet
facet normal 0.0 -0.38340522174836067 0.9235802271249045
  outer loop
    vertex 186.29680213892442 138.30966165560324 -260.2210119289288
    vertex 184.54680213892442 138.6710336258205 -260.0709958325404
    vertex 184.54680213892442 138.30966165560324 -260.2210119289288
  endloop
endfacet
facet normal 0.0 -0.38340522174836067 0.9235802271249045
  outer loop
    vertex 184.54680213892442 138.6710336258205 -260.0709958325404
    vertex 186.29680213892442 138.30966165560324 -260.2210119289288
    vertex 186.29680213892442 138.6710336258205 -260.0709958325404
  endloop
endfacet
facet normal 0.0 -0.13130085316083134 0.9913425674100946
  outer loop
    vertex 186.29680213892442 138.6710336258205 -260.0709958325404
    vertex 184.54680213892442 139.05891916756764 -260.0196213589382
    vertex 184.54680213892442 138.6710336258205 -260.0709958325404
  endloop
endfacet
facet normal 0.0 -0.13130085316083134 0.9913425674100946
  outer loop
    vertex 184.54680213892442 139.05891916756764 -260.0196213589382
    vertex 186.29680213892442 138.6710336258205 -260.0709958325404
    vertex 186.29680213892442 139.05891916756764 -260.0196213589382
  endloop
endfacet
endsolid irregular box
