solid irregular box
facet normal -0.0 -0.0 -1.0
  outer loop
    vertex 180.7968021389243 156.59698555779275 -307.91890719790285
    vertex 118.79680213892428 154.59698555779275 -307.91890719790285
    vertex 118.79680213892428 156.59698555779275 -307.91890719790285
  endloop
endfacet
facet normal -0.0 -0.0 -1.0
  outer loop
    vertex 118.79680213892428 154.59698555779275 -307.91890719790285
    vertex 180.7968021389243 156.59698555779275 -307.91890719790285
    vertex 180.7968021389243 154.59698555779275 -307.91890719790285
  endloop
endfacet
facet normal 0.0 1.0 0.0
  outer loop
    vertex 118.79680213892428 154.59698555779275 -307.91890719790285
    vertex 180.7968021389243 154.59698555779275 -314.91890719790285
    vertex 118.79680213892428 154.59698555779275 -314.91890719790285
  endloop
endfacet
facet normal 0.0 1.0 0.0
  outer loop
    vertex 180.7968021389243 154.59698555779275 -314.91890719790285
    vertex 118.79680213892428 154.59698555779275 -307.91890719790285
    vertex 180.7968021389243 154.59698555779275 -307.91890719790285
  endloop
endfacet
facet normal 1.0 0.0 0.0
  outer loop
    vertex 118.79680213892428 154.59698555779275 -314.91890719790285
    vertex 118.79680213892428 156.59698555779275 -311.91890719790285
    vertex 118.79680213892428 154.59698555779275 -307.91890719790285
  endloop
endfacet
facet normal 1.0 0.0 0.0
  outer loop
    vertex 118.79680213892428 156.59698555779275 -311.91890719790285
    vertex 118.79680213892428 154.59698555779275 -314.91890719790285
    vertex 118.79680213892428 160.59698555779275 -314.91890719790285
  endloop
endfacet
facet normal 1.0 0.0 0.0
  outer loop
    vertex 118.79680213892428 156.59698555779275 -311.91890719790285
    vertex 118.79680213892428 160.59698555779275 -314.91890719790285
    vertex 118.79680213892428 158.59698555779275 -311.91890719790285
  endloop
endfacet
facet normal 1.0 0.0 0.0
  outer loop
    vertex 118.79680213892428 158.59698555779275 -311.91890719790285
    vertex 118.79680213892428 160.59698555779275 -314.91890719790285
    vertex 118.79680213892428 158.59698555779275 -307.91890719790285
  endloop
endfacet
facet normal 1.0 0.0 0.0
  outer loop
    vertex 118.79680213892428 158.59698555779275 -307.91890719790285
    vertex 118.79680213892428 160.59698555779275 -314.91890719790285
    vertex 118.79680213892428 160.59698555779275 -307.91890719790285
  endloop
endfacet
facet normal 1.0 0.0 0.0
  outer loop
    vertex 118.79680213892428 156.59698555779275 -307.91890719790285
    vertex 118.79680213892428 154.59698555779275 -307.91890719790285
    vertex 118.79680213892428 156.59698555779275 -311.91890719790285
  endloop
endfacet
facet normal -0.0 -0.0 -1.0
  outer loop
    vertex 180.7968021389243 158.59698555779275 -311.91890719790285
    vertex 118.79680213892428 156.59698555779275 -311.91890719790285
    vertex 118.79680213892428 158.59698555779275 -311.91890719790285
  endloop
endfacet
facet normal -0.0 -0.0 -1.0
  outer loop
    vertex 118.79680213892428 156.59698555779275 -311.91890719790285
    vertex 180.7968021389243 158.59698555779275 -311.91890719790285
    vertex 180.7968021389243 156.59698555779275 -311.91890719790285
  endloop
endfacet
facet normal -0.0 -0.0 -1.0
  outer loop
    vertex 180.7968021389243 160.59698555779275 -307.91890719790285
    vertex 118.79680213892428 158.59698555779275 -307.91890719790285
    vertex 118.79680213892428 160.59698555779275 -307.91890719790285
  endloop
endfacet
facet normal -0.0 -0.0 -1.0
  outer loop
    vertex 118.79680213892428 158.59698555779275 -307.91890719790285
    vertex 180.7968021389243 160.59698555779275 -307.91890719790285
    vertex 180.7968021389243 158.59698555779275 -307.91890719790285
  endloop
endfacet
facet normal -0.0 -1.0 -0.0
  outer loop
    vertex 180.7968021389243 160.59698555779275 -307.91890719790285
    vertex 118.79680213892428 160.59698555779275 -314.91890719790285
    vertex 180.7968021389243 160.59698555779275 -314.91890719790285
  endloop
endfacet
facet normal -0.0 -1.0 -0.0
  outer loop
    vertex 118.79680213892428 160.59698555779275 -314.91890719790285
    vertex 180.7968021389243 160.59698555779275 -307.91890719790285
    vertex 118.79680213892428 160.59698555779275 -307.91890719790285
  endloop
endfacet
facet normal -0.0 -1.0 -0.0
  outer loop
    vertex 180.7968021389243 156.59698555779275 -307.91890719790285
    vertex 118.79680213892428 156.59698555779275 -311.91890719790285
    vertex 180.7968021389243 156.59698555779275 -311.91890719790285
  endloop
endfacet
facet normal -0.0 -1.0 -0.0
  outer loop
    vertex 118.79680213892428 156.59698555779275 -311.91890719790285
    vertex 180.7968021389243 156.59698555779275 -307.91890719790285
    vertex 118.79680213892428 156.59698555779275 -307.91890719790285
  endloop
endfacet
facet normal -1.0 -0.0 -0.0
  outer loop
    vertex 180.7968021389243 160.59698555779275 -307.91890719790285
    vertex 180.7968021389243 158.59698555779275 -311.91890719790285
    vertex 180.7968021389243 158.59698555779275 -307.91890719790285
  endloop
endfacet
facet normal -1.0 -0.0 -0.0
  outer loop
    vertex 180.7968021389243 156.59698555779275 -307.91890719790285
    vertex 180.7968021389243 154.59698555779275 -314.91890719790285
    vertex 180.7968021389243 154.59698555779275 -307.91890719790285
  endloop
endfacet
facet normal -1.0 -0.0 -0.0
  outer loop
    vertex 180.7968021389243 154.59698555779275 -314.91890719790285
    vertex 180.7968021389243 156.59698555779275 -307.91890719790285
    vertex 180.7968021389243 156.59698555779275 -311.91890719790285
  endloop
endfacet
facet normal -1.0 -0.0 -0.0
  outer loop
    vertex 180.7968021389243 154.59698555779275 -314.91890719790285
    vertex 180.7968021389243 156.59698555779275 -311.91890719790285
    vertex 180.7968021389243 160.59698555779275 -314.91890719790285
  endloop
endfacet
facet normal -1.0 -0.0 -0.0
  outer loop
    vertex 180.7968021389243 160.59698555779275 -314.91890719790285
    vertex 180.7968021389243 156.59698555779275 -311.91890719790285
    vertex 180.7968021389243 158.59698555779275 -311.91890719790285
  endloop
endfacet
facet normal -1.0 -0.0 -0.0
  outer loop
    vertex 180.7968021389243 160.59698555779275 -314.91890719790285
    vertex 180.7968021389243 158.59698555779275 -311.91890719790285
    vertex 180.7968021389243 160.59698555779275 -307.91890719790285
  endloop
endfacet
facet normal 0.0 1.0 0.0
  outer loop
    vertex 118.79680213892428 158.59698555779275 -307.91890719790285
    vertex 180.7968021389243 158.59698555779275 -311.91890719790285
    vertex 118.79680213892428 158.59698555779275 -311.91890719790285
  endloop
endfacet
facet normal 0.0 1.0 0.0
  outer loop
    vertex 180.7968021389243 158.59698555779275 -311.91890719790285
    vertex 118.79680213892428 158.59698555779275 -307.91890719790285
    vertex 180.7968021389243 158.59698555779275 -307.91890719790285
  endloop
endfacet
facet normal 0.0 0.0 1.0
  outer loop
    vertex 180.7968021389243 154.59698555779275 -314.91890719790285
    vertex 118.79680213892428 160.59698555779275 -314.91890719790285
    vertex 118.79680213892428 154.59698555779275 -314.91890719790285
  endloop
endfacet
facet normal 0.0 0.0 1.0
  outer loop
    vertex 118.79680213892428 160.59698555779275 -314.91890719790285
    vertex 180.7968021389243 154.59698555779275 -314.91890719790285
    vertex 180.7968021389243 160.59698555779275 -314.91890719790285
  endloop
endfacet
endsolid irregular box
